<?xml version="1.0" encoding="UTF-8" standalone="no"?>
<!DOCTYPE svg PUBLIC "-//W3C//DTD SVG 1.1//EN"
 "http://www.w3.org/Graphics/SVG/1.1/DTD/svg11.dtd">
<!-- Generated by graphviz version 2.44.1 (20200629.0846)
 -->
<!-- Title: dependencies Pages: 1 -->
<svg width="504pt" height="284pt"
 viewBox="0.00 0.00 504.00 284.00" xmlns="http://www.w3.org/2000/svg" xmlns:xlink="http://www.w3.org/1999/xlink">
<g id="graph0" class="graph" transform="scale(1 1) rotate(0) translate(4 280)">
<title>dependencies</title>
<polygon fill="white" stroke="transparent" points="-4,4 -4,-280 500,-280 500,4 -4,4"/>
<text text-anchor="start" x="227.01" y="-42.4" font-family="sans-serif" font-weight="bold" font-size="14.00">Legend</text>
<polygon fill="#ffffb3" stroke="transparent" points="14,-10 14,-30 34,-30 34,-10 14,-10"/>
<text text-anchor="start" x="37.63" y="-15.4" font-family="sans-serif" font-size="14.00"> &#160;Declarations</text>
<polygon fill="#8dd3c7" stroke="transparent" points="127,-10 127,-30 147,-30 147,-10 127,-10"/>
<text text-anchor="start" x="150.73" y="-15.4" font-family="sans-serif" font-size="14.00"> &#160;Module</text>
<polygon fill="#80b1d3" stroke="transparent" points="213,-10 213,-30 233,-30 233,-10 213,-10"/>
<text text-anchor="start" x="236.78" y="-15.4" font-family="sans-serif" font-size="14.00"> &#160;Bootstrap</text>
<polygon fill="#fdb462" stroke="transparent" points="310,-10 310,-30 330,-30 330,-10 310,-10"/>
<text text-anchor="start" x="333.67" y="-15.4" font-family="sans-serif" font-size="14.00"> &#160;Providers</text>
<polygon fill="#fb8072" stroke="transparent" points="406,-10 406,-30 426,-30 426,-10 406,-10"/>
<text text-anchor="start" x="429.73" y="-15.4" font-family="sans-serif" font-size="14.00"> &#160;Exports</text>
<g id="clust1" class="cluster">
<title>cluster_GithubModule</title>
<polygon fill="none" stroke="black" stroke-dasharray="1,5" points="88,-70 88,-268 408,-268 408,-70 88,-70"/>
</g>
<g id="clust4" class="cluster">
<title>cluster_GithubModule_imports</title>
<polygon fill="none" stroke="black" points="240,-78 240,-130 400,-130 400,-78 240,-78"/>
</g>
<g id="clust5" class="cluster">
<title>cluster_GithubModule_exports</title>
<polygon fill="none" stroke="black" points="173,-208 173,-260 313,-260 313,-208 173,-208"/>
</g>
<g id="clust2" class="cluster">
<title>cluster_GithubModule_declarations</title>
<polygon fill="none" stroke="black" points="96,-78 96,-130 232,-130 232,-78 96,-78"/>
</g>
<!-- GithubComponent -->
<g id="node1" class="node">
<title>GithubComponent</title>
<polygon fill="#ffffb3" stroke="black" points="224.22,-122 103.78,-122 103.78,-86 224.22,-86 224.22,-122"/>
<text text-anchor="middle" x="164" y="-99.8" font-family="Times,serif" font-size="14.00">GithubComponent</text>
</g>
<!-- GithubModule -->
<g id="node2" class="node">
<title>GithubModule</title>
<polygon fill="#8dd3c7" stroke="black" points="292.44,-187 289.44,-191 268.44,-191 265.44,-187 193.56,-187 193.56,-151 292.44,-151 292.44,-187"/>
<text text-anchor="middle" x="243" y="-164.8" font-family="Times,serif" font-size="14.00">GithubModule</text>
</g>
<!-- GithubComponent&#45;&gt;GithubModule -->
<g id="edge1" class="edge">
<title>GithubComponent&#45;&gt;GithubModule</title>
<path fill="none" stroke="black" d="M208.95,-122.11C208.95,-122.11 208.95,-140.99 208.95,-140.99"/>
<polygon fill="black" stroke="black" points="205.45,-140.99 208.95,-150.99 212.45,-140.99 205.45,-140.99"/>
</g>
<!-- GithubComponent  -->
<g id="node4" class="node">
<title>GithubComponent </title>
<polygon fill="#fb8072" stroke="black" points="304.72,-252 181.28,-252 181.28,-216 304.72,-216 304.72,-252"/>
<text text-anchor="middle" x="243" y="-229.8" font-family="Times,serif" font-size="14.00">GithubComponent </text>
</g>
<!-- GithubModule&#45;&gt;GithubComponent  -->
<g id="edge3" class="edge">
<title>GithubModule&#45;&gt;GithubComponent </title>
<path fill="none" stroke="black" stroke-dasharray="5,2" d="M243,-187.11C243,-187.11 243,-205.99 243,-205.99"/>
<polygon fill="black" stroke="black" points="239.5,-205.99 243,-215.99 246.5,-205.99 239.5,-205.99"/>
</g>
<!-- GithubRoutingModule -->
<g id="node3" class="node">
<title>GithubRoutingModule</title>
<polygon fill="#8dd3c7" stroke="black" points="391.56,-122 388.56,-126 367.56,-126 364.56,-122 248.44,-122 248.44,-86 391.56,-86 391.56,-122"/>
<text text-anchor="middle" x="320" y="-99.8" font-family="Times,serif" font-size="14.00">GithubRoutingModule</text>
</g>
<!-- GithubRoutingModule&#45;&gt;GithubModule -->
<g id="edge2" class="edge">
<title>GithubRoutingModule&#45;&gt;GithubModule</title>
<path fill="none" stroke="black" d="M270.22,-122.11C270.22,-122.11 270.22,-140.99 270.22,-140.99"/>
<polygon fill="black" stroke="black" points="266.72,-140.99 270.22,-150.99 273.72,-140.99 266.72,-140.99"/>
</g>
</g>
</svg>
