<?xml version="1.0" encoding="UTF-8" standalone="no"?>
<!DOCTYPE svg PUBLIC "-//W3C//DTD SVG 1.1//EN"
 "http://www.w3.org/Graphics/SVG/1.1/DTD/svg11.dtd">
<!-- Generated by graphviz version 2.44.1 (20200629.0846)
 -->
<!-- Title: dependencies Pages: 1 -->
<svg width="516pt" height="284pt"
 viewBox="0.00 0.00 516.00 284.00" xmlns="http://www.w3.org/2000/svg" xmlns:xlink="http://www.w3.org/1999/xlink">
<g id="graph0" class="graph" transform="scale(1 1) rotate(0) translate(4 280)">
<title>dependencies</title>
<polygon fill="white" stroke="transparent" points="-4,4 -4,-280 512,-280 512,4 -4,4"/>
<text text-anchor="start" x="233.01" y="-42.4" font-family="sans-serif" font-weight="bold" font-size="14.00">Legend</text>
<polygon fill="#ffffb3" stroke="transparent" points="20,-10 20,-30 40,-30 40,-10 20,-10"/>
<text text-anchor="start" x="43.63" y="-15.4" font-family="sans-serif" font-size="14.00"> &#160;Declarations</text>
<polygon fill="#8dd3c7" stroke="transparent" points="133,-10 133,-30 153,-30 153,-10 133,-10"/>
<text text-anchor="start" x="156.73" y="-15.4" font-family="sans-serif" font-size="14.00"> &#160;Module</text>
<polygon fill="#80b1d3" stroke="transparent" points="219,-10 219,-30 239,-30 239,-10 219,-10"/>
<text text-anchor="start" x="242.78" y="-15.4" font-family="sans-serif" font-size="14.00"> &#160;Bootstrap</text>
<polygon fill="#fdb462" stroke="transparent" points="316,-10 316,-30 336,-30 336,-10 316,-10"/>
<text text-anchor="start" x="339.67" y="-15.4" font-family="sans-serif" font-size="14.00"> &#160;Providers</text>
<polygon fill="#fb8072" stroke="transparent" points="412,-10 412,-30 432,-30 432,-10 412,-10"/>
<text text-anchor="start" x="435.73" y="-15.4" font-family="sans-serif" font-size="14.00"> &#160;Exports</text>
<g id="clust1" class="cluster">
<title>cluster_IdentityModule</title>
<polygon fill="none" stroke="black" stroke-dasharray="1,5" points="8,-70 8,-268 500,-268 500,-70 8,-70"/>
</g>
<g id="clust5" class="cluster">
<title>cluster_IdentityModule_exports</title>
<polygon fill="none" stroke="black" points="194,-208 194,-260 338,-260 338,-208 194,-208"/>
</g>
<g id="clust2" class="cluster">
<title>cluster_IdentityModule_declarations</title>
<polygon fill="none" stroke="black" points="352,-78 352,-130 492,-130 492,-78 352,-78"/>
</g>
<g id="clust7" class="cluster">
<title>cluster_IdentityModule_providers</title>
<polygon fill="none" stroke="black" points="188,-78 188,-130 344,-130 344,-78 188,-78"/>
</g>
<g id="clust4" class="cluster">
<title>cluster_IdentityModule_imports</title>
<polygon fill="none" stroke="black" points="16,-78 16,-130 180,-130 180,-78 16,-78"/>
</g>
<!-- IdentityComponent -->
<g id="node1" class="node">
<title>IdentityComponent</title>
<polygon fill="#ffffb3" stroke="black" points="484.38,-122 359.62,-122 359.62,-86 484.38,-86 484.38,-122"/>
<text text-anchor="middle" x="422" y="-99.8" font-family="Times,serif" font-size="14.00">IdentityComponent</text>
</g>
<!-- IdentityModule -->
<g id="node2" class="node">
<title>IdentityModule</title>
<polygon fill="#8dd3c7" stroke="black" points="317.6,-187 314.6,-191 293.6,-191 290.6,-187 214.4,-187 214.4,-151 317.6,-151 317.6,-187"/>
<text text-anchor="middle" x="266" y="-164.8" font-family="Times,serif" font-size="14.00">IdentityModule</text>
</g>
<!-- IdentityComponent&#45;&gt;IdentityModule -->
<g id="edge1" class="edge">
<title>IdentityComponent&#45;&gt;IdentityModule</title>
<path fill="none" stroke="black" d="M422,-122.11C422,-141.34 422,-169 422,-169 422,-169 327.95,-169 327.95,-169"/>
<polygon fill="black" stroke="black" points="327.95,-165.5 317.95,-169 327.95,-172.5 327.95,-165.5"/>
</g>
<!-- IdentityComponent  -->
<g id="node4" class="node">
<title>IdentityComponent </title>
<polygon fill="#fb8072" stroke="black" points="330.38,-252 201.62,-252 201.62,-216 330.38,-216 330.38,-252"/>
<text text-anchor="middle" x="266" y="-229.8" font-family="Times,serif" font-size="14.00">IdentityComponent </text>
</g>
<!-- IdentityModule&#45;&gt;IdentityComponent  -->
<g id="edge3" class="edge">
<title>IdentityModule&#45;&gt;IdentityComponent </title>
<path fill="none" stroke="black" stroke-dasharray="5,2" d="M266,-187.11C266,-187.11 266,-205.99 266,-205.99"/>
<polygon fill="black" stroke="black" points="262.5,-205.99 266,-215.99 269.5,-205.99 262.5,-205.99"/>
</g>
<!-- IdentityRoutingModule -->
<g id="node3" class="node">
<title>IdentityRoutingModule</title>
<polygon fill="#8dd3c7" stroke="black" points="172.21,-122 169.21,-126 148.21,-126 145.21,-122 23.79,-122 23.79,-86 172.21,-86 172.21,-122"/>
<text text-anchor="middle" x="98" y="-99.8" font-family="Times,serif" font-size="14.00">IdentityRoutingModule</text>
</g>
<!-- IdentityRoutingModule&#45;&gt;IdentityModule -->
<g id="edge2" class="edge">
<title>IdentityRoutingModule&#45;&gt;IdentityModule</title>
<path fill="none" stroke="black" d="M98,-122.11C98,-141.34 98,-169 98,-169 98,-169 204.22,-169 204.22,-169"/>
<polygon fill="black" stroke="black" points="204.22,-172.5 214.22,-169 204.22,-165.5 204.22,-172.5"/>
</g>
<!-- IdentityService -->
<g id="node5" class="node">
<title>IdentityService</title>
<ellipse fill="#fdb462" stroke="black" cx="266" cy="-104" rx="70.06" ry="18"/>
<text text-anchor="middle" x="266" y="-99.8" font-family="Times,serif" font-size="14.00">IdentityService</text>
</g>
<!-- IdentityService&#45;&gt;IdentityModule -->
<g id="edge4" class="edge">
<title>IdentityService&#45;&gt;IdentityModule</title>
<path fill="none" stroke="black" d="M266,-122.11C266,-122.11 266,-140.99 266,-140.99"/>
<polygon fill="black" stroke="black" points="262.5,-140.99 266,-150.99 269.5,-140.99 262.5,-140.99"/>
</g>
</g>
</svg>
