<?xml version="1.0" encoding="UTF-8" standalone="no"?>
<!DOCTYPE svg PUBLIC "-//W3C//DTD SVG 1.1//EN"
 "http://www.w3.org/Graphics/SVG/1.1/DTD/svg11.dtd">
<!-- Generated by graphviz version 2.44.1 (20200629.0846)
 -->
<!-- Title: dependencies Pages: 1 -->
<svg width="1392pt" height="428pt"
 viewBox="0.00 0.00 1392.00 428.00" xmlns="http://www.w3.org/2000/svg" xmlns:xlink="http://www.w3.org/1999/xlink">
<g id="graph0" class="graph" transform="scale(1 1) rotate(0) translate(4 424)">
<title>dependencies</title>
<polygon fill="white" stroke="transparent" points="-4,4 -4,-424 1388,-424 1388,4 -4,4"/>
<text text-anchor="start" x="671.01" y="-42.4" font-family="sans-serif" font-weight="bold" font-size="14.00">Legend</text>
<polygon fill="#ffffb3" stroke="transparent" points="458,-10 458,-30 478,-30 478,-10 458,-10"/>
<text text-anchor="start" x="481.63" y="-15.4" font-family="sans-serif" font-size="14.00"> &#160;Declarations</text>
<polygon fill="#8dd3c7" stroke="transparent" points="571,-10 571,-30 591,-30 591,-10 571,-10"/>
<text text-anchor="start" x="594.73" y="-15.4" font-family="sans-serif" font-size="14.00"> &#160;Module</text>
<polygon fill="#80b1d3" stroke="transparent" points="657,-10 657,-30 677,-30 677,-10 657,-10"/>
<text text-anchor="start" x="680.78" y="-15.4" font-family="sans-serif" font-size="14.00"> &#160;Bootstrap</text>
<polygon fill="#fdb462" stroke="transparent" points="754,-10 754,-30 774,-30 774,-10 754,-10"/>
<text text-anchor="start" x="777.67" y="-15.4" font-family="sans-serif" font-size="14.00"> &#160;Providers</text>
<polygon fill="#fb8072" stroke="transparent" points="850,-10 850,-30 870,-30 870,-10 850,-10"/>
<text text-anchor="start" x="873.73" y="-15.4" font-family="sans-serif" font-size="14.00"> &#160;Exports</text>
<g id="clust1" class="cluster">
<title>cluster_AppModule</title>
<polygon fill="none" stroke="black" stroke-dasharray="1,5" points="336,-214 336,-412 876,-412 876,-214 336,-214"/>
</g>
<g id="clust2" class="cluster">
<title>cluster_AppModule_declarations</title>
<polygon fill="none" stroke="black" points="613,-222 613,-274 868,-274 868,-222 613,-222"/>
</g>
<g id="clust5" class="cluster">
<title>cluster_AppModule_imports</title>
<polygon fill="none" stroke="black" points="344,-222 344,-274 605,-274 605,-222 344,-222"/>
</g>
<g id="clust7" class="cluster">
<title>cluster_AppModule_bootstrap</title>
<polygon fill="none" stroke="black" points="544,-352 544,-404 668,-404 668,-352 544,-352"/>
</g>
<g id="clust15" class="cluster">
<title>cluster_GithubModule</title>
<polygon fill="none" stroke="black" stroke-dasharray="1,5" points="598,-70 598,-198 774,-198 774,-70 598,-70"/>
</g>
<g id="clust17" class="cluster">
<title>cluster_GithubModule_imports</title>
<polygon fill="none" stroke="black" points="606,-78 606,-130 766,-130 766,-78 606,-78"/>
</g>
<g id="clust27" class="cluster">
<title>cluster_IdentityModule</title>
<polygon fill="none" stroke="black" stroke-dasharray="1,5" points="884,-70 884,-282 1376,-282 1376,-70 884,-70"/>
</g>
<g id="clust28" class="cluster">
<title>cluster_IdentityModule_declarations</title>
<polygon fill="none" stroke="black" points="1228,-78 1228,-130 1368,-130 1368,-78 1228,-78"/>
</g>
<g id="clust30" class="cluster">
<title>cluster_IdentityModule_imports</title>
<polygon fill="none" stroke="black" points="1056,-78 1056,-130 1220,-130 1220,-78 1056,-78"/>
</g>
<g id="clust31" class="cluster">
<title>cluster_IdentityModule_exports</title>
<polygon fill="none" stroke="black" points="938,-222 938,-274 1082,-274 1082,-222 938,-222"/>
</g>
<g id="clust33" class="cluster">
<title>cluster_IdentityModule_providers</title>
<polygon fill="none" stroke="black" points="892,-78 892,-130 1048,-130 1048,-78 892,-78"/>
</g>
<g id="clust40" class="cluster">
<title>cluster_SharedModule</title>
<polygon fill="none" stroke="black" stroke-dasharray="1,5" points="8,-138 8,-206 590,-206 590,-138 8,-138"/>
</g>
<g id="clust43" class="cluster">
<title>cluster_SharedModule_exports</title>
<polygon fill="none" stroke="black" points="340,-146 340,-198 582,-198 582,-146 340,-146"/>
</g>
<g id="clust45" class="cluster">
<title>cluster_SharedModule_providers</title>
<polygon fill="none" stroke="black" points="16,-146 16,-198 332,-198 332,-146 16,-146"/>
</g>
<!-- AppComponent -->
<g id="node1" class="node">
<title>AppComponent</title>
<polygon fill="#ffffb3" stroke="black" points="859.94,-266 754.06,-266 754.06,-230 859.94,-230 859.94,-266"/>
<text text-anchor="middle" x="807" y="-243.8" font-family="Times,serif" font-size="14.00">AppComponent</text>
</g>
<!-- AppModule -->
<g id="node3" class="node">
<title>AppModule</title>
<polygon fill="#8dd3c7" stroke="black" points="647.66,-331 644.66,-335 623.66,-335 620.66,-331 564.34,-331 564.34,-295 647.66,-295 647.66,-331"/>
<text text-anchor="middle" x="606" y="-308.8" font-family="Times,serif" font-size="14.00">AppModule</text>
</g>
<!-- AppComponent&#45;&gt;AppModule -->
<g id="edge1" class="edge">
<title>AppComponent&#45;&gt;AppModule</title>
<path fill="none" stroke="black" d="M807,-266.11C807,-285.34 807,-313 807,-313 807,-313 658.14,-313 658.14,-313"/>
<polygon fill="black" stroke="black" points="658.14,-309.5 648.14,-313 658.14,-316.5 658.14,-309.5"/>
</g>
<!-- HomeComponent -->
<g id="node2" class="node">
<title>HomeComponent</title>
<polygon fill="#ffffb3" stroke="black" points="736.55,-266 621.45,-266 621.45,-230 736.55,-230 736.55,-266"/>
<text text-anchor="middle" x="679" y="-243.8" font-family="Times,serif" font-size="14.00">HomeComponent</text>
</g>
<!-- HomeComponent&#45;&gt;AppModule -->
<g id="edge2" class="edge">
<title>HomeComponent&#45;&gt;AppModule</title>
<path fill="none" stroke="black" d="M634.53,-266.11C634.53,-266.11 634.53,-284.99 634.53,-284.99"/>
<polygon fill="black" stroke="black" points="631.03,-284.99 634.53,-294.99 638.03,-284.99 631.03,-284.99"/>
</g>
<!-- AppComponent  -->
<g id="node6" class="node">
<title>AppComponent </title>
<polygon fill="#80b1d3" stroke="black" points="660.44,-396 551.56,-396 551.56,-360 660.44,-360 660.44,-396"/>
<text text-anchor="middle" x="606" y="-373.8" font-family="Times,serif" font-size="14.00">AppComponent </text>
</g>
<!-- AppModule&#45;&gt;AppComponent  -->
<g id="edge5" class="edge">
<title>AppModule&#45;&gt;AppComponent </title>
<path fill="none" stroke="black" stroke-dasharray="1,5" d="M606,-331.11C606,-331.11 606,-349.99 606,-349.99"/>
<polygon fill="black" stroke="black" points="602.5,-349.99 606,-359.99 609.5,-349.99 602.5,-349.99"/>
</g>
<!-- AppRoutingModule -->
<g id="node4" class="node">
<title>AppRoutingModule</title>
<polygon fill="#8dd3c7" stroke="black" points="597.27,-266 594.27,-270 573.27,-270 570.27,-266 468.73,-266 468.73,-230 597.27,-230 597.27,-266"/>
<text text-anchor="middle" x="533" y="-243.8" font-family="Times,serif" font-size="14.00">AppRoutingModule</text>
</g>
<!-- AppRoutingModule&#45;&gt;AppModule -->
<g id="edge3" class="edge">
<title>AppRoutingModule&#45;&gt;AppModule</title>
<path fill="none" stroke="black" d="M580.78,-266.11C580.78,-266.11 580.78,-284.99 580.78,-284.99"/>
<polygon fill="black" stroke="black" points="577.28,-284.99 580.78,-294.99 584.28,-284.99 577.28,-284.99"/>
</g>
<!-- SharedModule -->
<g id="node5" class="node">
<title>SharedModule</title>
<polygon fill="#8dd3c7" stroke="black" points="450.42,-266 447.42,-270 426.42,-270 423.42,-266 351.58,-266 351.58,-230 450.42,-230 450.42,-266"/>
<text text-anchor="middle" x="401" y="-243.8" font-family="Times,serif" font-size="14.00">SharedModule</text>
</g>
<!-- SharedModule&#45;&gt;AppModule -->
<g id="edge4" class="edge">
<title>SharedModule&#45;&gt;AppModule</title>
<path fill="none" stroke="black" d="M401,-266.11C401,-285.34 401,-313 401,-313 401,-313 554.02,-313 554.02,-313"/>
<polygon fill="black" stroke="black" points="554.02,-316.5 564.02,-313 554.02,-309.5 554.02,-316.5"/>
</g>
<!-- GithubModule  -->
<g id="node14" class="node">
<title>GithubModule </title>
<polygon fill="#fb8072" stroke="black" points="573.94,-190 472.06,-190 472.06,-154 573.94,-154 573.94,-190"/>
<text text-anchor="middle" x="523" y="-167.8" font-family="Times,serif" font-size="14.00">GithubModule </text>
</g>
<!-- SharedModule&#45;&gt;GithubModule  -->
<g id="edge13" class="edge">
<title>SharedModule&#45;&gt;GithubModule </title>
<path fill="none" stroke="black" stroke-dasharray="5,2" d="M450.37,-248C456.94,-248 461.46,-248 461.46,-248 461.46,-248 461.46,-172 461.46,-172 461.46,-172 462.5,-172 462.5,-172"/>
<polygon fill="black" stroke="black" points="461.9,-175.5 471.9,-172 461.9,-168.5 461.9,-175.5"/>
</g>
<!-- IdentityModule  -->
<g id="node15" class="node">
<title>IdentityModule </title>
<polygon fill="#fb8072" stroke="black" points="454.1,-190 347.9,-190 347.9,-154 454.1,-154 454.1,-190"/>
<text text-anchor="middle" x="401" y="-167.8" font-family="Times,serif" font-size="14.00">IdentityModule </text>
</g>
<!-- SharedModule&#45;&gt;IdentityModule  -->
<g id="edge14" class="edge">
<title>SharedModule&#45;&gt;IdentityModule </title>
<path fill="none" stroke="black" stroke-dasharray="5,2" d="M371.47,-229.99C371.47,-229.99 371.47,-200.15 371.47,-200.15"/>
<polygon fill="black" stroke="black" points="374.97,-200.15 371.47,-190.15 367.97,-200.15 374.97,-200.15"/>
</g>
<!-- GithubRoutingModule -->
<g id="node7" class="node">
<title>GithubRoutingModule</title>
<polygon fill="#8dd3c7" stroke="black" points="757.56,-122 754.56,-126 733.56,-126 730.56,-122 614.44,-122 614.44,-86 757.56,-86 757.56,-122"/>
<text text-anchor="middle" x="686" y="-99.8" font-family="Times,serif" font-size="14.00">GithubRoutingModule</text>
</g>
<!-- GithubModule -->
<g id="node8" class="node">
<title>GithubModule</title>
<polygon fill="#8dd3c7" stroke="black" points="719.44,-190 716.44,-194 695.44,-194 692.44,-190 620.56,-190 620.56,-154 719.44,-154 719.44,-190"/>
<text text-anchor="middle" x="670" y="-167.8" font-family="Times,serif" font-size="14.00">GithubModule</text>
</g>
<!-- GithubRoutingModule&#45;&gt;GithubModule -->
<g id="edge6" class="edge">
<title>GithubRoutingModule&#45;&gt;GithubModule</title>
<path fill="none" stroke="black" d="M670,-122.22C670,-122.22 670,-143.73 670,-143.73"/>
<polygon fill="black" stroke="black" points="666.5,-143.73 670,-153.73 673.5,-143.73 666.5,-143.73"/>
</g>
<!-- GithubModule&#45;&gt;SharedModule -->
<g id="edge11" class="edge">
<title>GithubModule&#45;&gt;SharedModule</title>
<path fill="none" stroke="black" d="M670.22,-190.21C670.22,-195.55 670.22,-200 670.22,-200 670.22,-200 391.16,-200 391.16,-200 391.16,-200 391.16,-219.85 391.16,-219.85"/>
<polygon fill="black" stroke="black" points="387.66,-219.85 391.16,-229.85 394.66,-219.85 387.66,-219.85"/>
</g>
<!-- IdentityComponent -->
<g id="node9" class="node">
<title>IdentityComponent</title>
<polygon fill="#ffffb3" stroke="black" points="1360.38,-122 1235.62,-122 1235.62,-86 1360.38,-86 1360.38,-122"/>
<text text-anchor="middle" x="1298" y="-99.8" font-family="Times,serif" font-size="14.00">IdentityComponent</text>
</g>
<!-- IdentityModule -->
<g id="node10" class="node">
<title>IdentityModule</title>
<polygon fill="#8dd3c7" stroke="black" points="1061.6,-190 1058.6,-194 1037.6,-194 1034.6,-190 958.4,-190 958.4,-154 1061.6,-154 1061.6,-190"/>
<text text-anchor="middle" x="1010" y="-167.8" font-family="Times,serif" font-size="14.00">IdentityModule</text>
</g>
<!-- IdentityComponent&#45;&gt;IdentityModule -->
<g id="edge7" class="edge">
<title>IdentityComponent&#45;&gt;IdentityModule</title>
<path fill="none" stroke="black" d="M1298,-122.29C1298,-144.21 1298,-178 1298,-178 1298,-178 1071.82,-178 1071.82,-178"/>
<polygon fill="black" stroke="black" points="1071.82,-174.5 1061.82,-178 1071.82,-181.5 1071.82,-174.5"/>
</g>
<!-- IdentityModule&#45;&gt;SharedModule -->
<g id="edge12" class="edge">
<title>IdentityModule&#45;&gt;SharedModule</title>
<path fill="none" stroke="black" d="M992.82,-190.15C992.82,-203.74 992.82,-220 992.82,-220 992.82,-220 430.53,-220 430.53,-220 430.53,-220 430.53,-220.98 430.53,-220.98"/>
<polygon fill="black" stroke="black" points="427.03,-219.79 430.53,-229.79 434.03,-219.79 427.03,-219.79"/>
</g>
<!-- IdentityComponent  -->
<g id="node12" class="node">
<title>IdentityComponent </title>
<polygon fill="#fb8072" stroke="black" points="1074.38,-266 945.62,-266 945.62,-230 1074.38,-230 1074.38,-266"/>
<text text-anchor="middle" x="1010" y="-243.8" font-family="Times,serif" font-size="14.00">IdentityComponent </text>
</g>
<!-- IdentityModule&#45;&gt;IdentityComponent  -->
<g id="edge9" class="edge">
<title>IdentityModule&#45;&gt;IdentityComponent </title>
<path fill="none" stroke="black" stroke-dasharray="5,2" d="M1027.18,-190.01C1027.18,-190.01 1027.18,-219.85 1027.18,-219.85"/>
<polygon fill="black" stroke="black" points="1023.68,-219.85 1027.18,-229.85 1030.68,-219.85 1023.68,-219.85"/>
</g>
<!-- IdentityRoutingModule -->
<g id="node11" class="node">
<title>IdentityRoutingModule</title>
<polygon fill="#8dd3c7" stroke="black" points="1212.21,-122 1209.21,-126 1188.21,-126 1185.21,-122 1063.79,-122 1063.79,-86 1212.21,-86 1212.21,-122"/>
<text text-anchor="middle" x="1138" y="-99.8" font-family="Times,serif" font-size="14.00">IdentityRoutingModule</text>
</g>
<!-- IdentityRoutingModule&#45;&gt;IdentityModule -->
<g id="edge8" class="edge">
<title>IdentityRoutingModule&#45;&gt;IdentityModule</title>
<path fill="none" stroke="black" d="M1069.04,-122.27C1069.04,-140.56 1069.04,-166 1069.04,-166 1069.04,-166 1068.32,-166 1068.32,-166"/>
<polygon fill="black" stroke="black" points="1071.8,-162.5 1061.8,-166 1071.8,-169.5 1071.8,-162.5"/>
</g>
<!-- IdentityService -->
<g id="node13" class="node">
<title>IdentityService</title>
<ellipse fill="#fdb462" stroke="black" cx="970" cy="-104" rx="70.06" ry="18"/>
<text text-anchor="middle" x="970" y="-99.8" font-family="Times,serif" font-size="14.00">IdentityService</text>
</g>
<!-- IdentityService&#45;&gt;SharedModule -->
<g id="edge16" class="edge">
<title>IdentityService&#45;&gt;SharedModule</title>
<path fill="none" stroke="black" d="M922.89,-117.42C922.89,-145.95 922.89,-210 922.89,-210 922.89,-210 410.84,-210 410.84,-210 410.84,-210 410.84,-219.89 410.84,-219.89"/>
<polygon fill="black" stroke="black" points="407.34,-219.89 410.84,-229.89 414.34,-219.89 407.34,-219.89"/>
</g>
<!-- IdentityService&#45;&gt;IdentityModule -->
<g id="edge10" class="edge">
<title>IdentityService&#45;&gt;IdentityModule</title>
<path fill="none" stroke="black" d="M999.24,-120.46C999.24,-120.46 999.24,-143.78 999.24,-143.78"/>
<polygon fill="black" stroke="black" points="995.74,-143.78 999.24,-153.78 1002.74,-143.78 995.74,-143.78"/>
</g>
<!-- GithubService -->
<g id="node16" class="node">
<title>GithubService</title>
<ellipse fill="#fdb462" stroke="black" cx="257" cy="-172" rx="66.63" ry="18"/>
<text text-anchor="middle" x="257" y="-167.8" font-family="Times,serif" font-size="14.00">GithubService</text>
</g>
<!-- GithubService&#45;&gt;SharedModule -->
<g id="edge15" class="edge">
<title>GithubService&#45;&gt;SharedModule</title>
<path fill="none" stroke="black" d="M257,-190.03C257,-210.77 257,-242 257,-242 257,-242 341.44,-242 341.44,-242"/>
<polygon fill="black" stroke="black" points="341.44,-245.5 351.44,-242 341.44,-238.5 341.44,-245.5"/>
</g>
<!-- MessageService -->
<g id="node17" class="node">
<title>MessageService</title>
<ellipse fill="#fdb462" stroke="black" cx="98" cy="-172" rx="73.55" ry="18"/>
<text text-anchor="middle" x="98" y="-167.8" font-family="Times,serif" font-size="14.00">MessageService</text>
</g>
<!-- MessageService&#45;&gt;SharedModule -->
<g id="edge17" class="edge">
<title>MessageService&#45;&gt;SharedModule</title>
<path fill="none" stroke="black" d="M98,-190.2C98,-214.36 98,-254 98,-254 98,-254 341.64,-254 341.64,-254"/>
<polygon fill="black" stroke="black" points="341.64,-257.5 351.64,-254 341.64,-250.5 341.64,-257.5"/>
</g>
</g>
</svg>
