<?xml version="1.0" encoding="UTF-8" standalone="no"?>
<!DOCTYPE svg PUBLIC "-//W3C//DTD SVG 1.1//EN"
 "http://www.w3.org/Graphics/SVG/1.1/DTD/svg11.dtd">
<!-- Generated by graphviz version 2.44.1 (20200629.0846)
 -->
<!-- Title: dependencies Pages: 1 -->
<svg width="642pt" height="284pt"
 viewBox="0.00 0.00 642.00 284.00" xmlns="http://www.w3.org/2000/svg" xmlns:xlink="http://www.w3.org/1999/xlink">
<g id="graph0" class="graph" transform="scale(1 1) rotate(0) translate(4 280)">
<title>dependencies</title>
<polygon fill="white" stroke="transparent" points="-4,4 -4,-280 638,-280 638,4 -4,4"/>
<text text-anchor="start" x="296.01" y="-42.4" font-family="sans-serif" font-weight="bold" font-size="14.00">Legend</text>
<polygon fill="#ffffb3" stroke="transparent" points="83,-10 83,-30 103,-30 103,-10 83,-10"/>
<text text-anchor="start" x="106.63" y="-15.4" font-family="sans-serif" font-size="14.00"> &#160;Declarations</text>
<polygon fill="#8dd3c7" stroke="transparent" points="196,-10 196,-30 216,-30 216,-10 196,-10"/>
<text text-anchor="start" x="219.73" y="-15.4" font-family="sans-serif" font-size="14.00"> &#160;Module</text>
<polygon fill="#80b1d3" stroke="transparent" points="282,-10 282,-30 302,-30 302,-10 282,-10"/>
<text text-anchor="start" x="305.78" y="-15.4" font-family="sans-serif" font-size="14.00"> &#160;Bootstrap</text>
<polygon fill="#fdb462" stroke="transparent" points="379,-10 379,-30 399,-30 399,-10 379,-10"/>
<text text-anchor="start" x="402.67" y="-15.4" font-family="sans-serif" font-size="14.00"> &#160;Providers</text>
<polygon fill="#fb8072" stroke="transparent" points="475,-10 475,-30 495,-30 495,-10 475,-10"/>
<text text-anchor="start" x="498.73" y="-15.4" font-family="sans-serif" font-size="14.00"> &#160;Exports</text>
<g id="clust1" class="cluster">
<title>cluster_SharedModule</title>
<polygon fill="none" stroke="black" stroke-dasharray="1,5" points="8,-70 8,-268 626,-268 626,-70 8,-70"/>
</g>
<g id="clust3" class="cluster">
<title>cluster_SharedModule_imports</title>
<polygon fill="none" stroke="black" points="498,-78 498,-130 618,-130 618,-78 498,-78"/>
</g>
<g id="clust4" class="cluster">
<title>cluster_SharedModule_exports</title>
<polygon fill="none" stroke="black" points="276,-208 276,-260 398,-260 398,-208 276,-208"/>
</g>
<g id="clust6" class="cluster">
<title>cluster_SharedModule_providers</title>
<polygon fill="none" stroke="black" points="16,-78 16,-130 490,-130 490,-78 16,-78"/>
</g>
<!-- IdentityModule -->
<g id="node1" class="node">
<title>IdentityModule</title>
<polygon fill="#8dd3c7" stroke="black" points="609.6,-122 606.6,-126 585.6,-126 582.6,-122 506.4,-122 506.4,-86 609.6,-86 609.6,-122"/>
<text text-anchor="middle" x="558" y="-99.8" font-family="Times,serif" font-size="14.00">IdentityModule</text>
</g>
<!-- SharedModule -->
<g id="node2" class="node">
<title>SharedModule</title>
<polygon fill="#8dd3c7" stroke="black" points="386.42,-187 383.42,-191 362.42,-191 359.42,-187 287.58,-187 287.58,-151 386.42,-151 386.42,-187"/>
<text text-anchor="middle" x="337" y="-164.8" font-family="Times,serif" font-size="14.00">SharedModule</text>
</g>
<!-- IdentityModule&#45;&gt;SharedModule -->
<g id="edge1" class="edge">
<title>IdentityModule&#45;&gt;SharedModule</title>
<path fill="none" stroke="black" d="M558,-122.11C558,-141.34 558,-169 558,-169 558,-169 396.32,-169 396.32,-169"/>
<polygon fill="black" stroke="black" points="396.32,-165.5 386.32,-169 396.32,-172.5 396.32,-165.5"/>
</g>
<!-- IdentityModule  -->
<g id="node3" class="node">
<title>IdentityModule </title>
<polygon fill="#fb8072" stroke="black" points="390.1,-252 283.9,-252 283.9,-216 390.1,-216 390.1,-252"/>
<text text-anchor="middle" x="337" y="-229.8" font-family="Times,serif" font-size="14.00">IdentityModule </text>
</g>
<!-- SharedModule&#45;&gt;IdentityModule  -->
<g id="edge2" class="edge">
<title>SharedModule&#45;&gt;IdentityModule </title>
<path fill="none" stroke="black" stroke-dasharray="5,2" d="M337,-187.11C337,-187.11 337,-205.99 337,-205.99"/>
<polygon fill="black" stroke="black" points="333.5,-205.99 337,-215.99 340.5,-205.99 333.5,-205.99"/>
</g>
<!-- GithubService -->
<g id="node4" class="node">
<title>GithubService</title>
<ellipse fill="#fdb462" stroke="black" cx="415" cy="-104" rx="66.63" ry="18"/>
<text text-anchor="middle" x="415" y="-99.8" font-family="Times,serif" font-size="14.00">GithubService</text>
</g>
<!-- GithubService&#45;&gt;SharedModule -->
<g id="edge3" class="edge">
<title>GithubService&#45;&gt;SharedModule</title>
<path fill="none" stroke="black" d="M367.2,-116.84C367.2,-116.84 367.2,-140.52 367.2,-140.52"/>
<polygon fill="black" stroke="black" points="363.7,-140.52 367.2,-150.52 370.7,-140.52 363.7,-140.52"/>
</g>
<!-- IdentityService -->
<g id="node5" class="node">
<title>IdentityService</title>
<ellipse fill="#fdb462" stroke="black" cx="260" cy="-104" rx="70.06" ry="18"/>
<text text-anchor="middle" x="260" y="-99.8" font-family="Times,serif" font-size="14.00">IdentityService</text>
</g>
<!-- IdentityService&#45;&gt;SharedModule -->
<g id="edge4" class="edge">
<title>IdentityService&#45;&gt;SharedModule</title>
<path fill="none" stroke="black" d="M308.91,-117.15C308.91,-117.15 308.91,-140.69 308.91,-140.69"/>
<polygon fill="black" stroke="black" points="305.41,-140.69 308.91,-150.69 312.41,-140.69 305.41,-140.69"/>
</g>
<!-- MessageService -->
<g id="node6" class="node">
<title>MessageService</title>
<ellipse fill="#fdb462" stroke="black" cx="98" cy="-104" rx="73.55" ry="18"/>
<text text-anchor="middle" x="98" y="-99.8" font-family="Times,serif" font-size="14.00">MessageService</text>
</g>
<!-- MessageService&#45;&gt;SharedModule -->
<g id="edge5" class="edge">
<title>MessageService&#45;&gt;SharedModule</title>
<path fill="none" stroke="black" d="M98,-122.11C98,-141.34 98,-169 98,-169 98,-169 277.77,-169 277.77,-169"/>
<polygon fill="black" stroke="black" points="277.77,-172.5 287.77,-169 277.77,-165.5 277.77,-172.5"/>
</g>
</g>
</svg>
