<?xml version="1.0" encoding="UTF-8" standalone="no"?>
<!DOCTYPE svg PUBLIC "-//W3C//DTD SVG 1.1//EN"
 "http://www.w3.org/Graphics/SVG/1.1/DTD/svg11.dtd">
<!-- Generated by graphviz version 2.44.1 (20200629.0846)
 -->
<!-- Title: dependencies Pages: 1 -->
<svg width="758pt" height="284pt"
 viewBox="0.00 0.00 758.00 284.00" xmlns="http://www.w3.org/2000/svg" xmlns:xlink="http://www.w3.org/1999/xlink">
<g id="graph0" class="graph" transform="scale(1 1) rotate(0) translate(4 280)">
<title>dependencies</title>
<polygon fill="white" stroke="transparent" points="-4,4 -4,-280 754,-280 754,4 -4,4"/>
<text text-anchor="start" x="354.01" y="-42.4" font-family="sans-serif" font-weight="bold" font-size="14.00">Legend</text>
<polygon fill="#ffffb3" stroke="transparent" points="141,-10 141,-30 161,-30 161,-10 141,-10"/>
<text text-anchor="start" x="164.63" y="-15.4" font-family="sans-serif" font-size="14.00"> &#160;Declarations</text>
<polygon fill="#8dd3c7" stroke="transparent" points="254,-10 254,-30 274,-30 274,-10 254,-10"/>
<text text-anchor="start" x="277.73" y="-15.4" font-family="sans-serif" font-size="14.00"> &#160;Module</text>
<polygon fill="#80b1d3" stroke="transparent" points="340,-10 340,-30 360,-30 360,-10 340,-10"/>
<text text-anchor="start" x="363.78" y="-15.4" font-family="sans-serif" font-size="14.00"> &#160;Bootstrap</text>
<polygon fill="#fdb462" stroke="transparent" points="437,-10 437,-30 457,-30 457,-10 437,-10"/>
<text text-anchor="start" x="460.67" y="-15.4" font-family="sans-serif" font-size="14.00"> &#160;Providers</text>
<polygon fill="#fb8072" stroke="transparent" points="533,-10 533,-30 553,-30 553,-10 533,-10"/>
<text text-anchor="start" x="556.73" y="-15.4" font-family="sans-serif" font-size="14.00"> &#160;Exports</text>
<g id="clust1" class="cluster">
<title>cluster_SharedModule</title>
<polygon fill="none" stroke="black" stroke-dasharray="1,5" points="8,-70 8,-268 742,-268 742,-70 8,-70"/>
</g>
<g id="clust6" class="cluster">
<title>cluster_SharedModule_providers</title>
<polygon fill="none" stroke="black" points="260,-78 260,-130 734,-130 734,-78 260,-78"/>
</g>
<g id="clust3" class="cluster">
<title>cluster_SharedModule_imports</title>
<polygon fill="none" stroke="black" points="16,-78 16,-130 252,-130 252,-78 16,-78"/>
</g>
<g id="clust4" class="cluster">
<title>cluster_SharedModule_exports</title>
<polygon fill="none" stroke="black" points="220,-208 220,-260 462,-260 462,-208 220,-208"/>
</g>
<!-- GithubModule -->
<g id="node1" class="node">
<title>GithubModule</title>
<polygon fill="#8dd3c7" stroke="black" points="244.44,-122 241.44,-126 220.44,-126 217.44,-122 145.56,-122 145.56,-86 244.44,-86 244.44,-122"/>
<text text-anchor="middle" x="195" y="-99.8" font-family="Times,serif" font-size="14.00">GithubModule</text>
</g>
<!-- SharedModule -->
<g id="node3" class="node">
<title>SharedModule</title>
<polygon fill="#8dd3c7" stroke="black" points="391.42,-187 388.42,-191 367.42,-191 364.42,-187 292.58,-187 292.58,-151 391.42,-151 391.42,-187"/>
<text text-anchor="middle" x="342" y="-164.8" font-family="Times,serif" font-size="14.00">SharedModule</text>
</g>
<!-- GithubModule&#45;&gt;SharedModule -->
<g id="edge1" class="edge">
<title>GithubModule&#45;&gt;SharedModule</title>
<path fill="none" stroke="black" d="M235.96,-122.02C235.96,-139.37 235.96,-163 235.96,-163 235.96,-163 282.71,-163 282.71,-163"/>
<polygon fill="black" stroke="black" points="282.71,-166.5 292.71,-163 282.71,-159.5 282.71,-166.5"/>
</g>
<!-- IdentityModule -->
<g id="node2" class="node">
<title>IdentityModule</title>
<polygon fill="#8dd3c7" stroke="black" points="127.6,-122 124.6,-126 103.6,-126 100.6,-122 24.4,-122 24.4,-86 127.6,-86 127.6,-122"/>
<text text-anchor="middle" x="76" y="-99.8" font-family="Times,serif" font-size="14.00">IdentityModule</text>
</g>
<!-- IdentityModule&#45;&gt;SharedModule -->
<g id="edge2" class="edge">
<title>IdentityModule&#45;&gt;SharedModule</title>
<path fill="none" stroke="black" d="M76,-122.28C76,-143.32 76,-175 76,-175 76,-175 282.59,-175 282.59,-175"/>
<polygon fill="black" stroke="black" points="282.59,-178.5 292.59,-175 282.59,-171.5 282.59,-178.5"/>
</g>
<!-- GithubModule  -->
<g id="node4" class="node">
<title>GithubModule </title>
<polygon fill="#fb8072" stroke="black" points="453.94,-252 352.06,-252 352.06,-216 453.94,-216 453.94,-252"/>
<text text-anchor="middle" x="403" y="-229.8" font-family="Times,serif" font-size="14.00">GithubModule </text>
</g>
<!-- SharedModule&#45;&gt;GithubModule  -->
<g id="edge3" class="edge">
<title>SharedModule&#45;&gt;GithubModule </title>
<path fill="none" stroke="black" stroke-dasharray="5,2" d="M371.62,-187.11C371.62,-187.11 371.62,-205.99 371.62,-205.99"/>
<polygon fill="black" stroke="black" points="368.12,-205.99 371.62,-215.99 375.12,-205.99 368.12,-205.99"/>
</g>
<!-- IdentityModule  -->
<g id="node5" class="node">
<title>IdentityModule </title>
<polygon fill="#fb8072" stroke="black" points="334.1,-252 227.9,-252 227.9,-216 334.1,-216 334.1,-252"/>
<text text-anchor="middle" x="281" y="-229.8" font-family="Times,serif" font-size="14.00">IdentityModule </text>
</g>
<!-- SharedModule&#45;&gt;IdentityModule  -->
<g id="edge4" class="edge">
<title>SharedModule&#45;&gt;IdentityModule </title>
<path fill="none" stroke="black" stroke-dasharray="5,2" d="M313.54,-187.11C313.54,-187.11 313.54,-205.99 313.54,-205.99"/>
<polygon fill="black" stroke="black" points="310.04,-205.99 313.54,-215.99 317.04,-205.99 310.04,-205.99"/>
</g>
<!-- GithubService -->
<g id="node6" class="node">
<title>GithubService</title>
<ellipse fill="#fdb462" stroke="black" cx="659" cy="-104" rx="66.63" ry="18"/>
<text text-anchor="middle" x="659" y="-99.8" font-family="Times,serif" font-size="14.00">GithubService</text>
</g>
<!-- GithubService&#45;&gt;SharedModule -->
<g id="edge5" class="edge">
<title>GithubService&#45;&gt;SharedModule</title>
<path fill="none" stroke="black" d="M659,-122.28C659,-143.32 659,-175 659,-175 659,-175 401.53,-175 401.53,-175"/>
<polygon fill="black" stroke="black" points="401.53,-171.5 391.53,-175 401.53,-178.5 401.53,-171.5"/>
</g>
<!-- IdentityService -->
<g id="node7" class="node">
<title>IdentityService</title>
<ellipse fill="#fdb462" stroke="black" cx="504" cy="-104" rx="70.06" ry="18"/>
<text text-anchor="middle" x="504" y="-99.8" font-family="Times,serif" font-size="14.00">IdentityService</text>
</g>
<!-- IdentityService&#45;&gt;SharedModule -->
<g id="edge6" class="edge">
<title>IdentityService&#45;&gt;SharedModule</title>
<path fill="none" stroke="black" d="M443.97,-113.48C443.97,-130.16 443.97,-163 443.97,-163 443.97,-163 401.49,-163 401.49,-163"/>
<polygon fill="black" stroke="black" points="401.49,-159.5 391.49,-163 401.49,-166.5 401.49,-159.5"/>
</g>
<!-- MessageService -->
<g id="node8" class="node">
<title>MessageService</title>
<ellipse fill="#fdb462" stroke="black" cx="342" cy="-104" rx="73.55" ry="18"/>
<text text-anchor="middle" x="342" y="-99.8" font-family="Times,serif" font-size="14.00">MessageService</text>
</g>
<!-- MessageService&#45;&gt;SharedModule -->
<g id="edge7" class="edge">
<title>MessageService&#45;&gt;SharedModule</title>
<path fill="none" stroke="black" d="M342,-122.11C342,-122.11 342,-140.99 342,-140.99"/>
<polygon fill="black" stroke="black" points="338.5,-140.99 342,-150.99 345.5,-140.99 338.5,-140.99"/>
</g>
</g>
</svg>
