<?xml version="1.0" encoding="UTF-8" standalone="no"?>
<!DOCTYPE svg PUBLIC "-//W3C//DTD SVG 1.1//EN"
 "http://www.w3.org/Graphics/SVG/1.1/DTD/svg11.dtd">
<!-- Generated by graphviz version 2.44.1 (20200629.0846)
 -->
<!-- Title: dependencies Pages: 1 -->
<svg width="758pt" height="284pt"
 viewBox="0.00 0.00 758.00 284.00" xmlns="http://www.w3.org/2000/svg" xmlns:xlink="http://www.w3.org/1999/xlink">
<g id="graph0" class="graph" transform="scale(1 1) rotate(0) translate(4 280)">
<title>dependencies</title>
<polygon fill="white" stroke="transparent" points="-4,4 -4,-280 754,-280 754,4 -4,4"/>
<text text-anchor="start" x="354.01" y="-42.4" font-family="sans-serif" font-weight="bold" font-size="14.00">Legend</text>
<polygon fill="#ffffb3" stroke="transparent" points="141,-10 141,-30 161,-30 161,-10 141,-10"/>
<text text-anchor="start" x="164.63" y="-15.4" font-family="sans-serif" font-size="14.00"> &#160;Declarations</text>
<polygon fill="#8dd3c7" stroke="transparent" points="254,-10 254,-30 274,-30 274,-10 254,-10"/>
<text text-anchor="start" x="277.73" y="-15.4" font-family="sans-serif" font-size="14.00"> &#160;Module</text>
<polygon fill="#80b1d3" stroke="transparent" points="340,-10 340,-30 360,-30 360,-10 340,-10"/>
<text text-anchor="start" x="363.78" y="-15.4" font-family="sans-serif" font-size="14.00"> &#160;Bootstrap</text>
<polygon fill="#fdb462" stroke="transparent" points="437,-10 437,-30 457,-30 457,-10 437,-10"/>
<text text-anchor="start" x="460.67" y="-15.4" font-family="sans-serif" font-size="14.00"> &#160;Providers</text>
<polygon fill="#fb8072" stroke="transparent" points="533,-10 533,-30 553,-30 553,-10 533,-10"/>
<text text-anchor="start" x="556.73" y="-15.4" font-family="sans-serif" font-size="14.00"> &#160;Exports</text>
<g id="clust1" class="cluster">
<title>cluster_SharedModule</title>
<polygon fill="none" stroke="black" stroke-dasharray="1,5" points="8,-70 8,-268 742,-268 742,-70 8,-70"/>
</g>
<g id="clust4" class="cluster">
<title>cluster_SharedModule_exports</title>
<polygon fill="none" stroke="black" points="293,-208 293,-260 535,-260 535,-208 293,-208"/>
</g>
<g id="clust3" class="cluster">
<title>cluster_SharedModule_imports</title>
<polygon fill="none" stroke="black" points="498,-78 498,-130 734,-130 734,-78 498,-78"/>
</g>
<g id="clust6" class="cluster">
<title>cluster_SharedModule_providers</title>
<polygon fill="none" stroke="black" points="16,-78 16,-130 490,-130 490,-78 16,-78"/>
</g>
<!-- GithubModule -->
<g id="node1" class="node">
<title>GithubModule</title>
<polygon fill="#8dd3c7" stroke="black" points="726.44,-122 723.44,-126 702.44,-126 699.44,-122 627.56,-122 627.56,-86 726.44,-86 726.44,-122"/>
<text text-anchor="middle" x="677" y="-99.8" font-family="Times,serif" font-size="14.00">GithubModule</text>
</g>
<!-- SharedModule -->
<g id="node3" class="node">
<title>SharedModule</title>
<polygon fill="#8dd3c7" stroke="black" points="464.42,-187 461.42,-191 440.42,-191 437.42,-187 365.58,-187 365.58,-151 464.42,-151 464.42,-187"/>
<text text-anchor="middle" x="415" y="-164.8" font-family="Times,serif" font-size="14.00">SharedModule</text>
</g>
<!-- GithubModule&#45;&gt;SharedModule -->
<g id="edge1" class="edge">
<title>GithubModule&#45;&gt;SharedModule</title>
<path fill="none" stroke="black" d="M677,-122.28C677,-143.32 677,-175 677,-175 677,-175 474.28,-175 474.28,-175"/>
<polygon fill="black" stroke="black" points="474.28,-171.5 464.28,-175 474.28,-178.5 474.28,-171.5"/>
</g>
<!-- IdentityModule -->
<g id="node2" class="node">
<title>IdentityModule</title>
<polygon fill="#8dd3c7" stroke="black" points="609.6,-122 606.6,-126 585.6,-126 582.6,-122 506.4,-122 506.4,-86 609.6,-86 609.6,-122"/>
<text text-anchor="middle" x="558" y="-99.8" font-family="Times,serif" font-size="14.00">IdentityModule</text>
</g>
<!-- IdentityModule&#45;&gt;SharedModule -->
<g id="edge2" class="edge">
<title>IdentityModule&#45;&gt;SharedModule</title>
<path fill="none" stroke="black" d="M516.71,-122.02C516.71,-139.37 516.71,-163 516.71,-163 516.71,-163 474.37,-163 474.37,-163"/>
<polygon fill="black" stroke="black" points="474.37,-159.5 464.37,-163 474.37,-166.5 474.37,-159.5"/>
</g>
<!-- GithubModule  -->
<g id="node4" class="node">
<title>GithubModule </title>
<polygon fill="#fb8072" stroke="black" points="526.94,-252 425.06,-252 425.06,-216 526.94,-216 526.94,-252"/>
<text text-anchor="middle" x="476" y="-229.8" font-family="Times,serif" font-size="14.00">GithubModule </text>
</g>
<!-- SharedModule&#45;&gt;GithubModule  -->
<g id="edge3" class="edge">
<title>SharedModule&#45;&gt;GithubModule </title>
<path fill="none" stroke="black" stroke-dasharray="5,2" d="M444.62,-187.11C444.62,-187.11 444.62,-205.99 444.62,-205.99"/>
<polygon fill="black" stroke="black" points="441.12,-205.99 444.62,-215.99 448.12,-205.99 441.12,-205.99"/>
</g>
<!-- IdentityModule  -->
<g id="node5" class="node">
<title>IdentityModule </title>
<polygon fill="#fb8072" stroke="black" points="407.1,-252 300.9,-252 300.9,-216 407.1,-216 407.1,-252"/>
<text text-anchor="middle" x="354" y="-229.8" font-family="Times,serif" font-size="14.00">IdentityModule </text>
</g>
<!-- SharedModule&#45;&gt;IdentityModule  -->
<g id="edge4" class="edge">
<title>SharedModule&#45;&gt;IdentityModule </title>
<path fill="none" stroke="black" stroke-dasharray="5,2" d="M386.54,-187.11C386.54,-187.11 386.54,-205.99 386.54,-205.99"/>
<polygon fill="black" stroke="black" points="383.04,-205.99 386.54,-215.99 390.04,-205.99 383.04,-205.99"/>
</g>
<!-- GithubService -->
<g id="node6" class="node">
<title>GithubService</title>
<ellipse fill="#fdb462" stroke="black" cx="415" cy="-104" rx="66.63" ry="18"/>
<text text-anchor="middle" x="415" y="-99.8" font-family="Times,serif" font-size="14.00">GithubService</text>
</g>
<!-- GithubService&#45;&gt;SharedModule -->
<g id="edge5" class="edge">
<title>GithubService&#45;&gt;SharedModule</title>
<path fill="none" stroke="black" d="M415,-122.11C415,-122.11 415,-140.99 415,-140.99"/>
<polygon fill="black" stroke="black" points="411.5,-140.99 415,-150.99 418.5,-140.99 411.5,-140.99"/>
</g>
<!-- IdentityService -->
<g id="node7" class="node">
<title>IdentityService</title>
<ellipse fill="#fdb462" stroke="black" cx="260" cy="-104" rx="70.06" ry="18"/>
<text text-anchor="middle" x="260" y="-99.8" font-family="Times,serif" font-size="14.00">IdentityService</text>
</g>
<!-- IdentityService&#45;&gt;SharedModule -->
<g id="edge6" class="edge">
<title>IdentityService&#45;&gt;SharedModule</title>
<path fill="none" stroke="black" d="M315.37,-115.1C315.37,-132.19 315.37,-163 315.37,-163 315.37,-163 355.77,-163 355.77,-163"/>
<polygon fill="black" stroke="black" points="355.77,-166.5 365.77,-163 355.77,-159.5 355.77,-166.5"/>
</g>
<!-- MessageService -->
<g id="node8" class="node">
<title>MessageService</title>
<ellipse fill="#fdb462" stroke="black" cx="98" cy="-104" rx="73.55" ry="18"/>
<text text-anchor="middle" x="98" y="-99.8" font-family="Times,serif" font-size="14.00">MessageService</text>
</g>
<!-- MessageService&#45;&gt;SharedModule -->
<g id="edge7" class="edge">
<title>MessageService&#45;&gt;SharedModule</title>
<path fill="none" stroke="black" d="M98,-122.28C98,-143.32 98,-175 98,-175 98,-175 355.47,-175 355.47,-175"/>
<polygon fill="black" stroke="black" points="355.47,-178.5 365.47,-175 355.47,-171.5 355.47,-178.5"/>
</g>
</g>
</svg>
