<?xml version="1.0" encoding="UTF-8" standalone="no"?>
<!DOCTYPE svg PUBLIC "-//W3C//DTD SVG 1.1//EN"
 "http://www.w3.org/Graphics/SVG/1.1/DTD/svg11.dtd">
<!-- Generated by graphviz version 2.44.1 (20200629.0846)
 -->
<!-- Title: dependencies Pages: 1 -->
<svg width="504pt" height="284pt"
 viewBox="0.00 0.00 504.00 284.00" xmlns="http://www.w3.org/2000/svg" xmlns:xlink="http://www.w3.org/1999/xlink">
<g id="graph0" class="graph" transform="scale(1 1) rotate(0) translate(4 280)">
<title>dependencies</title>
<polygon fill="white" stroke="transparent" points="-4,4 -4,-280 500,-280 500,4 -4,4"/>
<text text-anchor="start" x="227.01" y="-42.4" font-family="sans-serif" font-weight="bold" font-size="14.00">Legend</text>
<polygon fill="#ffffb3" stroke="transparent" points="14,-10 14,-30 34,-30 34,-10 14,-10"/>
<text text-anchor="start" x="37.63" y="-15.4" font-family="sans-serif" font-size="14.00"> &#160;Declarations</text>
<polygon fill="#8dd3c7" stroke="transparent" points="127,-10 127,-30 147,-30 147,-10 127,-10"/>
<text text-anchor="start" x="150.73" y="-15.4" font-family="sans-serif" font-size="14.00"> &#160;Module</text>
<polygon fill="#80b1d3" stroke="transparent" points="213,-10 213,-30 233,-30 233,-10 213,-10"/>
<text text-anchor="start" x="236.78" y="-15.4" font-family="sans-serif" font-size="14.00"> &#160;Bootstrap</text>
<polygon fill="#fdb462" stroke="transparent" points="310,-10 310,-30 330,-30 330,-10 310,-10"/>
<text text-anchor="start" x="333.67" y="-15.4" font-family="sans-serif" font-size="14.00"> &#160;Providers</text>
<polygon fill="#fb8072" stroke="transparent" points="406,-10 406,-30 426,-30 426,-10 406,-10"/>
<text text-anchor="start" x="429.73" y="-15.4" font-family="sans-serif" font-size="14.00"> &#160;Exports</text>
<g id="clust1" class="cluster">
<title>cluster_CloudServicesModule</title>
<polygon fill="none" stroke="black" stroke-dasharray="1,5" points="79,-70 79,-268 417,-268 417,-70 79,-70"/>
</g>
<g id="clust2" class="cluster">
<title>cluster_CloudServicesModule_declarations</title>
<polygon fill="none" stroke="black" points="264,-78 264,-130 408,-130 408,-78 264,-78"/>
</g>
<g id="clust4" class="cluster">
<title>cluster_CloudServicesModule_imports</title>
<polygon fill="none" stroke="black" points="88,-78 88,-130 256,-130 256,-78 88,-78"/>
</g>
<g id="clust5" class="cluster">
<title>cluster_CloudServicesModule_exports</title>
<polygon fill="none" stroke="black" points="87,-208 87,-260 409,-260 409,-208 87,-208"/>
</g>
<!-- AccountComponent -->
<g id="node1" class="node">
<title>AccountComponent</title>
<polygon fill="#ffffb3" stroke="black" points="400.26,-122 271.74,-122 271.74,-86 400.26,-86 400.26,-122"/>
<text text-anchor="middle" x="336" y="-99.8" font-family="Times,serif" font-size="14.00">AccountComponent</text>
</g>
<!-- CloudServicesModule -->
<g id="node2" class="node">
<title>CloudServicesModule</title>
<polygon fill="#8dd3c7" stroke="black" points="324.7,-187 321.7,-191 300.7,-191 297.7,-187 183.3,-187 183.3,-151 324.7,-151 324.7,-187"/>
<text text-anchor="middle" x="254" y="-164.8" font-family="Times,serif" font-size="14.00">CloudServicesModule</text>
</g>
<!-- AccountComponent&#45;&gt;CloudServicesModule -->
<g id="edge1" class="edge">
<title>AccountComponent&#45;&gt;CloudServicesModule</title>
<path fill="none" stroke="black" d="M298.11,-122.11C298.11,-122.11 298.11,-140.99 298.11,-140.99"/>
<polygon fill="black" stroke="black" points="294.61,-140.99 298.11,-150.99 301.61,-140.99 294.61,-140.99"/>
</g>
<!-- AccountComponent  -->
<g id="node4" class="node">
<title>AccountComponent </title>
<polygon fill="#fb8072" stroke="black" points="401.26,-252 268.74,-252 268.74,-216 401.26,-216 401.26,-252"/>
<text text-anchor="middle" x="335" y="-229.8" font-family="Times,serif" font-size="14.00">AccountComponent </text>
</g>
<!-- CloudServicesModule&#45;&gt;AccountComponent  -->
<g id="edge3" class="edge">
<title>CloudServicesModule&#45;&gt;AccountComponent </title>
<path fill="none" stroke="black" stroke-dasharray="5,2" d="M296.74,-187.11C296.74,-187.11 296.74,-205.99 296.74,-205.99"/>
<polygon fill="black" stroke="black" points="293.24,-205.99 296.74,-215.99 300.24,-205.99 293.24,-205.99"/>
</g>
<!-- AccountRoutingModule  -->
<g id="node5" class="node">
<title>AccountRoutingModule </title>
<polygon fill="#fb8072" stroke="black" points="250.59,-252 95.41,-252 95.41,-216 250.59,-216 250.59,-252"/>
<text text-anchor="middle" x="173" y="-229.8" font-family="Times,serif" font-size="14.00">AccountRoutingModule </text>
</g>
<!-- CloudServicesModule&#45;&gt;AccountRoutingModule  -->
<g id="edge4" class="edge">
<title>CloudServicesModule&#45;&gt;AccountRoutingModule </title>
<path fill="none" stroke="black" stroke-dasharray="5,2" d="M217.1,-187.11C217.1,-187.11 217.1,-205.99 217.1,-205.99"/>
<polygon fill="black" stroke="black" points="213.6,-205.99 217.1,-215.99 220.6,-205.99 213.6,-205.99"/>
</g>
<!-- AccountRoutingModule -->
<g id="node3" class="node">
<title>AccountRoutingModule</title>
<polygon fill="#8dd3c7" stroke="black" points="248.09,-122 245.09,-126 224.09,-126 221.09,-122 95.91,-122 95.91,-86 248.09,-86 248.09,-122"/>
<text text-anchor="middle" x="172" y="-99.8" font-family="Times,serif" font-size="14.00">AccountRoutingModule</text>
</g>
<!-- AccountRoutingModule&#45;&gt;CloudServicesModule -->
<g id="edge2" class="edge">
<title>AccountRoutingModule&#45;&gt;CloudServicesModule</title>
<path fill="none" stroke="black" d="M215.72,-122.11C215.72,-122.11 215.72,-140.99 215.72,-140.99"/>
<polygon fill="black" stroke="black" points="212.22,-140.99 215.72,-150.99 219.22,-140.99 212.22,-140.99"/>
</g>
</g>
</svg>
