<?xml version="1.0" encoding="UTF-8" standalone="no"?>
<!DOCTYPE svg PUBLIC "-//W3C//DTD SVG 1.1//EN"
 "http://www.w3.org/Graphics/SVG/1.1/DTD/svg11.dtd">
<!-- Generated by graphviz version 2.44.1 (20200629.0846)
 -->
<!-- Title: dependencies Pages: 1 -->
<svg width="1160pt" height="284pt"
 viewBox="0.00 0.00 1160.00 284.00" xmlns="http://www.w3.org/2000/svg" xmlns:xlink="http://www.w3.org/1999/xlink">
<g id="graph0" class="graph" transform="scale(1 1) rotate(0) translate(4 280)">
<title>dependencies</title>
<polygon fill="white" stroke="transparent" points="-4,4 -4,-280 1156,-280 1156,4 -4,4"/>
<text text-anchor="start" x="555.01" y="-42.4" font-family="sans-serif" font-weight="bold" font-size="14.00">Legend</text>
<polygon fill="#ffffb3" stroke="transparent" points="342,-10 342,-30 362,-30 362,-10 342,-10"/>
<text text-anchor="start" x="365.63" y="-15.4" font-family="sans-serif" font-size="14.00"> &#160;Declarations</text>
<polygon fill="#8dd3c7" stroke="transparent" points="455,-10 455,-30 475,-30 475,-10 455,-10"/>
<text text-anchor="start" x="478.73" y="-15.4" font-family="sans-serif" font-size="14.00"> &#160;Module</text>
<polygon fill="#80b1d3" stroke="transparent" points="541,-10 541,-30 561,-30 561,-10 541,-10"/>
<text text-anchor="start" x="564.78" y="-15.4" font-family="sans-serif" font-size="14.00"> &#160;Bootstrap</text>
<polygon fill="#fdb462" stroke="transparent" points="638,-10 638,-30 658,-30 658,-10 638,-10"/>
<text text-anchor="start" x="661.67" y="-15.4" font-family="sans-serif" font-size="14.00"> &#160;Providers</text>
<polygon fill="#fb8072" stroke="transparent" points="734,-10 734,-30 754,-30 754,-10 734,-10"/>
<text text-anchor="start" x="757.73" y="-15.4" font-family="sans-serif" font-size="14.00"> &#160;Exports</text>
<g id="clust1" class="cluster">
<title>cluster_AppModule</title>
<polygon fill="none" stroke="black" stroke-dasharray="1,5" points="8,-70 8,-268 1144,-268 1144,-70 8,-70"/>
</g>
<g id="clust8" class="cluster">
<title>cluster_AppModule_providers</title>
<polygon fill="none" stroke="black" points="958,-78 958,-130 1136,-130 1136,-78 958,-78"/>
</g>
<g id="clust2" class="cluster">
<title>cluster_AppModule_declarations</title>
<polygon fill="none" stroke="black" points="667,-78 667,-130 950,-130 950,-78 667,-78"/>
</g>
<g id="clust7" class="cluster">
<title>cluster_AppModule_bootstrap</title>
<polygon fill="none" stroke="black" points="457,-208 457,-260 581,-260 581,-208 457,-208"/>
</g>
<g id="clust5" class="cluster">
<title>cluster_AppModule_imports</title>
<polygon fill="none" stroke="black" points="16,-78 16,-130 659,-130 659,-78 16,-78"/>
</g>
<!-- AppComponent -->
<g id="node1" class="node">
<title>AppComponent</title>
<polygon fill="#ffffb3" stroke="black" points="941.94,-122 836.06,-122 836.06,-86 941.94,-86 941.94,-122"/>
<text text-anchor="middle" x="889" y="-99.8" font-family="Times,serif" font-size="14.00">AppComponent</text>
</g>
<!-- AppModule -->
<g id="node3" class="node">
<title>AppModule</title>
<polygon fill="#8dd3c7" stroke="black" points="560.66,-187 557.66,-191 536.66,-191 533.66,-187 477.34,-187 477.34,-151 560.66,-151 560.66,-187"/>
<text text-anchor="middle" x="519" y="-164.8" font-family="Times,serif" font-size="14.00">AppModule</text>
</g>
<!-- AppComponent&#45;&gt;AppModule -->
<g id="edge1" class="edge">
<title>AppComponent&#45;&gt;AppModule</title>
<path fill="none" stroke="black" d="M889,-122.11C889,-141.34 889,-169 889,-169 889,-169 570.72,-169 570.72,-169"/>
<polygon fill="black" stroke="black" points="570.72,-165.5 560.72,-169 570.72,-172.5 570.72,-165.5"/>
</g>
<!-- NavigationComponent -->
<g id="node2" class="node">
<title>NavigationComponent</title>
<polygon fill="#ffffb3" stroke="black" points="818.54,-122 675.46,-122 675.46,-86 818.54,-86 818.54,-122"/>
<text text-anchor="middle" x="747" y="-99.8" font-family="Times,serif" font-size="14.00">NavigationComponent</text>
</g>
<!-- NavigationComponent&#45;&gt;AppModule -->
<g id="edge2" class="edge">
<title>NavigationComponent&#45;&gt;AppModule</title>
<path fill="none" stroke="black" d="M747,-122.03C747,-138.4 747,-160 747,-160 747,-160 570.82,-160 570.82,-160"/>
<polygon fill="black" stroke="black" points="570.82,-156.5 560.82,-160 570.82,-163.5 570.82,-156.5"/>
</g>
<!-- AppComponent  -->
<g id="node9" class="node">
<title>AppComponent </title>
<polygon fill="#80b1d3" stroke="black" points="573.44,-252 464.56,-252 464.56,-216 573.44,-216 573.44,-252"/>
<text text-anchor="middle" x="519" y="-229.8" font-family="Times,serif" font-size="14.00">AppComponent </text>
</g>
<!-- AppModule&#45;&gt;AppComponent  -->
<g id="edge8" class="edge">
<title>AppModule&#45;&gt;AppComponent </title>
<path fill="none" stroke="black" stroke-dasharray="1,5" d="M519,-187.11C519,-187.11 519,-205.99 519,-205.99"/>
<polygon fill="black" stroke="black" points="515.5,-205.99 519,-215.99 522.5,-205.99 515.5,-205.99"/>
</g>
<!-- AppRoutingModule -->
<g id="node4" class="node">
<title>AppRoutingModule</title>
<polygon fill="#8dd3c7" stroke="black" points="651.27,-122 648.27,-126 627.27,-126 624.27,-122 522.73,-122 522.73,-86 651.27,-86 651.27,-122"/>
<text text-anchor="middle" x="587" y="-99.8" font-family="Times,serif" font-size="14.00">AppRoutingModule</text>
</g>
<!-- AppRoutingModule&#45;&gt;AppModule -->
<g id="edge3" class="edge">
<title>AppRoutingModule&#45;&gt;AppModule</title>
<path fill="none" stroke="black" d="M541.72,-122.11C541.72,-122.11 541.72,-140.99 541.72,-140.99"/>
<polygon fill="black" stroke="black" points="538.22,-140.99 541.72,-150.99 545.22,-140.99 538.22,-140.99"/>
</g>
<!-- LoadingModule -->
<g id="node5" class="node">
<title>LoadingModule</title>
<polygon fill="#8dd3c7" stroke="black" points="505.21,-122 502.21,-126 481.21,-126 478.21,-122 398.79,-122 398.79,-86 505.21,-86 505.21,-122"/>
<text text-anchor="middle" x="452" y="-99.8" font-family="Times,serif" font-size="14.00">LoadingModule</text>
</g>
<!-- LoadingModule&#45;&gt;AppModule -->
<g id="edge4" class="edge">
<title>LoadingModule&#45;&gt;AppModule</title>
<path fill="none" stroke="black" d="M491.14,-122.11C491.14,-122.11 491.14,-140.99 491.14,-140.99"/>
<polygon fill="black" stroke="black" points="487.64,-140.99 491.14,-150.99 494.64,-140.99 487.64,-140.99"/>
</g>
<!-- ResourcesModule -->
<g id="node6" class="node">
<title>ResourcesModule</title>
<polygon fill="#8dd3c7" stroke="black" points="380.58,-122 377.58,-126 356.58,-126 353.58,-122 263.42,-122 263.42,-86 380.58,-86 380.58,-122"/>
<text text-anchor="middle" x="322" y="-99.8" font-family="Times,serif" font-size="14.00">ResourcesModule</text>
</g>
<!-- ResourcesModule&#45;&gt;AppModule -->
<g id="edge5" class="edge">
<title>ResourcesModule&#45;&gt;AppModule</title>
<path fill="none" stroke="black" d="M322,-122.03C322,-138.4 322,-160 322,-160 322,-160 467.22,-160 467.22,-160"/>
<polygon fill="black" stroke="black" points="467.22,-163.5 477.22,-160 467.22,-156.5 467.22,-163.5"/>
</g>
<!-- SharedModule -->
<g id="node7" class="node">
<title>SharedModule</title>
<polygon fill="#8dd3c7" stroke="black" points="245.42,-122 242.42,-126 221.42,-126 218.42,-122 146.58,-122 146.58,-86 245.42,-86 245.42,-122"/>
<text text-anchor="middle" x="196" y="-99.8" font-family="Times,serif" font-size="14.00">SharedModule</text>
</g>
<!-- SharedModule&#45;&gt;AppModule -->
<g id="edge6" class="edge">
<title>SharedModule&#45;&gt;AppModule</title>
<path fill="none" stroke="black" d="M196,-122.11C196,-141.34 196,-169 196,-169 196,-169 467.1,-169 467.1,-169"/>
<polygon fill="black" stroke="black" points="467.1,-172.5 477.1,-169 467.1,-165.5 467.1,-172.5"/>
</g>
<!-- SidenavModule -->
<g id="node8" class="node">
<title>SidenavModule</title>
<polygon fill="#8dd3c7" stroke="black" points="128.15,-122 125.15,-126 104.15,-126 101.15,-122 23.85,-122 23.85,-86 128.15,-86 128.15,-122"/>
<text text-anchor="middle" x="76" y="-99.8" font-family="Times,serif" font-size="14.00">SidenavModule</text>
</g>
<!-- SidenavModule&#45;&gt;AppModule -->
<g id="edge7" class="edge">
<title>SidenavModule&#45;&gt;AppModule</title>
<path fill="none" stroke="black" d="M76,-122.29C76,-144.21 76,-178 76,-178 76,-178 467.32,-178 467.32,-178"/>
<polygon fill="black" stroke="black" points="467.32,-181.5 477.32,-178 467.32,-174.5 467.32,-181.5"/>
</g>
<!-- HeaderInterceptor -->
<g id="node10" class="node">
<title>HeaderInterceptor</title>
<ellipse fill="#fdb462" stroke="black" cx="1047" cy="-104" rx="81.04" ry="18"/>
<text text-anchor="middle" x="1047" y="-99.8" font-family="Times,serif" font-size="14.00">HeaderInterceptor</text>
</g>
<!-- HeaderInterceptor&#45;&gt;AppModule -->
<g id="edge9" class="edge">
<title>HeaderInterceptor&#45;&gt;AppModule</title>
<path fill="none" stroke="black" d="M1047,-122.29C1047,-144.21 1047,-178 1047,-178 1047,-178 570.87,-178 570.87,-178"/>
<polygon fill="black" stroke="black" points="570.87,-174.5 560.87,-178 570.87,-181.5 570.87,-174.5"/>
</g>
</g>
</svg>
